# xmcd
# 
# Track frame offsets:
#     183
#     12755
#     27658
#     32673
#     44083
#     62723
#     70678
#     83563
#     90533
#     107508
#     120703
#     137285
#     150035
# 
# Disc length: 2179
# 
# Revision: 3
# Processed by: cddbd v1.5.2PL0 Copyright (c) Steve Scherf et al.
# Submitted via: fre:ac v1.0.31
# 
DISCID=9508810d
DTITLE=Emmylou Harris - The Ballad Of Sally Rose
DYEAR=0
DGENRE=Country
TTITLE0=The Ballad Of Sally Rose
TTITLE1=Rhythm Guitar
TTITLE2=I Think I Love Him - Instrumental - You Are My Flowers
TTITLE3=Heart To Heart
TTITLE4=Woman Walk The Line
TTITLE5=Bad News
TTITLE6=Timberline
TTITLE7=Long Tall Sally Rose
TTITLE8=White Line
TTITLE9=Diamond In My Crown
TTITLE10=The Sweetheart Of The Rodeo
TTITLE11=Instrumental Medley - Ring Of Fire - Wildwood Flower - Six Days On The Road
TTITLE12=Sweet Chariot
EXTD=
EXTT0=
EXTT1=
EXTT2=
EXTT3=
EXTT4=
EXTT5=
EXTT6=
EXTT7=
EXTT8=
EXTT9=
EXTT10=
EXTT11=
EXTT12=
PLAYORDER=
